# xmcd
#
# Track frame offsets:
#	150
#	16218
#	35685
#	51370
#	73927
#	84143
#	96791
#	116711
#	136558
#	148453
#
# Disc length: 2187 seconds
#
# Revision: 0
# Processed by: cddbd v1.4PL0 Copyright (c) Steve Scherf et al.
# Submitted via: dBpowerAMP V4.0
#
DISCID=8a08890a
DTITLE=Gaucha - Cesar Passarinho - Negro de 35
DYEAR=2001
DGENRE=Gaucha
TTITLE0=Volteada
TTITLE1=Faz de Conta
TTITLE2=Noites de Milonga
TTITLE3=Os Cardeais
TTITLE4=Retina Das Buscas
TTITLE5=Cambichos
TTITLE6=Negro de 35
TTITLE7=Noites de Inverno, Sonhos de Primavera
TTITLE8=Moirão a Moirão
TTITLE9=Trovador
EXTD=
EXTT0=
EXTT1=
EXTT2=
EXTT3=
EXTT4=
EXTT5=
EXTT6=
EXTT7=
EXTT8=
EXTT9=
PLAYORDER=
